<?xml version="1.0" encoding="utf-8"?>
<svg xmlns="http://www.w3.org/2000/svg" xmlns:xlink="http://www.w3.org/1999/xlink" width="200" height="100" viewBox="0 0 200 100"><defs><style>.a,.f{fill:none;}.a{stroke:#707070;opacity:0;}.b{fill:#25252d;}.c{fill:#2edce3;}.d{fill:url(#a);}.e{stroke:none;}</style><radialGradient id="a" cx="0.791" cy="0.186" r="1.384" gradientTransform="matrix(-0.643, 0.772, -0.781, -0.636, 1.445, -0.307)" gradientUnits="objectBoundingBox"><stop offset="0" stop-color="#ff5da4"/><stop offset="0.368" stop-color="#ff7086"/><stop offset="1" stop-color="#ffc400"/></radialGradient></defs><g transform="translate(-2069 8765)"><g class="a" transform="translate(2069 -8765)"><rect class="e" width="200" height="100"/><rect class="f" x="0.5" y="0.5" width="199" height="99"/></g><g transform="translate(1755.145 -9154.175)"><g transform="translate(368.836 425.696)"><path class="b" d="M637.6,498.889V475.4h10.989c5.114,0,7.885,3.451,7.885,7.58,0,4.088-2.813,7.58-7.885,7.58H642.6v8.356h-5Zm13.775-15.923a3.155,3.155,0,0,0-3.451-3.173H642.6v6.347h5.308A3.175,3.175,0,0,0,651.375,482.966Z" transform="translate(-637.6 -475.4)"/><path class="b" d="M784.9,539.117V522.1h4.476v17.017Z" transform="translate(-764.488 -515.628)"/><path class="b" d="M837.488,536.447V526.164c0-2.356-1.233-3.173-3.132-3.173a4.861,4.861,0,0,0-3.88,2.009v11.446H826V519.43h4.476v2.217A7.809,7.809,0,0,1,836.435,519c3.728,0,5.529,2.12,5.529,5.432v12.015Z" transform="translate(-799.892 -512.958)"/><path class="b" d="M958.117,498.889l-4.5-6.555-2.037,2.19v4.365H947.1V475.4h4.476v14.052l6.444-7.58h5.5l-6.735,7.719,6.943,9.3Z" transform="translate(-904.21 -475.4)"/><path class="b" d="M1094.091,536.447v-10.74c0-1.58-.707-2.716-2.536-2.716a4.525,4.525,0,0,0-3.52,1.968v11.488h-4.5v-10.74c0-1.58-.707-2.716-2.536-2.716a4.538,4.538,0,0,0-3.52,2.009v11.446H1073V519.43h4.476v2.217a7.451,7.451,0,0,1,5.571-2.647c2.508,0,4.088,1.164,4.726,3.1a7.217,7.217,0,0,1,5.848-3.1c3.132,0,5,1.649,5,5.141v12.292h-4.531Z" transform="translate(-1012.663 -512.958)"/><path class="b" d="M1274.908,536.533v-1.76a7.059,7.059,0,0,1-5.391,2.19,5.665,5.665,0,0,1-5.917-5.64c0-3.977,3.2-5.5,5.917-5.5a6.968,6.968,0,0,1,5.391,2.079v-2.287c0-1.732-1.483-2.855-3.728-2.855a7.121,7.121,0,0,0-4.961,2.009l-1.691-2.993a11.164,11.164,0,0,1,7.428-2.674c3.88,0,7.428,1.552,7.428,6.444v10.989Zm0-4.088v-2.12a4.473,4.473,0,0,0-3.589-1.483c-1.76,0-3.2.915-3.2,2.578,0,1.58,1.441,2.508,3.2,2.508A4.449,4.449,0,0,0,1274.908,532.445Z" transform="translate(-1176.85 -513.044)"/><path class="b" d="M1383.3,536.533V519.516h4.476v2.328a7.316,7.316,0,0,1,5.432-2.744v4.365a5.955,5.955,0,0,0-1.233-.111,5.716,5.716,0,0,0-4.2,1.94v11.239Z" transform="translate(-1279.963 -513.044)"/><path class="b" d="M1463.713,505.947v-8.883H1460.9v-3.908h2.813V488.5h4.5v4.656h3.451v3.908h-3.451v7.677c0,1.053.568,1.871,1.552,1.871a2.448,2.448,0,0,0,1.552-.5l.956,3.381a5.53,5.53,0,0,1-3.728,1.095C1465.4,510.6,1463.713,508.982,1463.713,505.947Z" transform="translate(-1346.809 -486.685)"/><path class="b" d="M1556.4,612.247a2.674,2.674,0,1,1,2.675,2.675A2.7,2.7,0,0,1,1556.4,612.247Z" transform="translate(-1429.075 -591.003)"/></g><path class="c" d="M330.824,544.857a5.219,5.219,0,0,1-5.224-5.224V526.191a2.042,2.042,0,0,1,.014-.291,10.588,10.588,0,0,0,10.449,10.172v3.561a5.24,5.24,0,0,1-5.238,5.224Z" transform="translate(0 -93.206)"/><path class="b" d="M325.6,495.287a5.228,5.228,0,0,1,10.449.291v9.881A10.588,10.588,0,0,1,325.6,495.287Z" transform="translate(0 -62.579)"/><path class="d" d="M339.929,442.88h-3.866V433a5.229,5.229,0,0,0-10.449-.291c0-.139-.014-.277-.014-.416v-4A10.566,10.566,0,0,1,336.173,417.7h3.742A10.566,10.566,0,0,1,350.5,428.273v4.019a10.566,10.566,0,0,1-10.573,10.587Zm-5.765-.194a10.88,10.88,0,0,1-3.035-1.081A10.88,10.88,0,0,0,334.164,442.685Zm-5.418-2.869a10.745,10.745,0,0,1-1.829-2.411,10.373,10.373,0,0,1-1.164-3.312,10.542,10.542,0,0,0,2.993,5.723Z" transform="translate(0 0)"/></g></g></svg>